<svg xmlns="http://www.w3.org/2000/svg" width="805" height="600"><rect width="805" height="600" x="0" y="0" fill="#FFFFFF" id="backgorund"/><g id="viz"><g transform="translate(0,0)"><g transform="translate(10,20)"><g><path fill="#1f77b4" d="M0,340.00000000000006C12.46031746031746,339.9122807017544,24.920634920634917,339.8245614035088,37.38095238095238,339.4736842105263C49.84126984126984,339.1228070175438,62.3015873015873,292.8070175438597,74.76190476190476,292.8070175438597C87.22222222222221,292.8070175438597,99.68253968253968,296.27923976608184,112.14285714285714,299.4736842105263C124.6031746031746,302.66812865497076,137.06349206349205,306.46442495126706,149.52380952380952,311.97368421052636C161.984126984127,317.48294346978565,174.44444444444443,332.5292397660819,186.9047619047619,332.5292397660819C199.36507936507937,332.5292397660819,211.8253968253968,304.3713450292398,224.28571428571428,299.37134502923976C236.74603174603172,294.3713450292397,249.2063492063492,295.75292397660814,261.66666666666663,291.8713450292397C274.1269841269841,287.98976608187127,286.58730158730157,283.2372598162072,299.04761904761904,276.08187134502924C311.5079365079365,268.92648287385134,323.9682539682539,252.01593727909523,336.4285714285714,248.93901420217213C348.88888888888886,245.862091125249,361.3492063492063,245.2760105391684,373.8095238095238,244.32362958678746C386.26984126984127,243.37124863440653,398.73015873015873,242.89505815821605,411.1904761904762,242.89505815821605C423.6507936507937,242.89505815821605,436.1111111111111,249.04890431206218,448.57142857142856,249.04890431206218C461.031746031746,249.04890431206218,473.4920634920635,249.04890431206218,485.95238095238096,249.04890431206218C498.4126984126984,249.04890431206218,510.87301587301585,233.42390431206218,523.3333333333333,233.42390431206218C535.7936507936507,233.42390431206218,548.2539682539683,234.90538579354367,560.7142857142858,237.86834875650666C573.1746031746032,240.83131171946962,585.6349206349206,259.2969201850781,598.0952380952381,259.2969201850781C610.5555555555555,259.2969201850781,623.015873015873,229.7675084203722,635.4761904761905,225.7675084203722C647.936507936508,221.76750842037222,660.3968253968253,223.13592947300378,672.8571428571428,219.76750842037222C685.3174603174602,216.39908736774063,697.7777777777778,205.55698210458274,710.2380952380953,205.55698210458274C735.1587301587302,205.55698210458274,760.0793650793651,224.8903154379161,785,244.2236487712494L785,264.2236487712494C760.0793650793651,254.89031543791606,735.1587301587302,245.55698210458272,710.2380952380953,245.55698210458272C697.7777777777778,245.55698210458272,685.3174603174602,253.06575403440726,672.8571428571428,259.7675084203722C660.3968253968253,266.46926280633716,647.936507936508,285.7675084203722,635.4761904761905,285.7675084203722C623.015873015873,285.7675084203722,610.5555555555555,280.24930113745904,598.0952380952381,279.2969201850781C585.6349206349206,278.3445392326971,573.1746031746032,277.86834875650663,560.7142857142858,277.86834875650663C548.2539682539683,277.86834875650663,535.7936507936507,293.4239043120622,523.3333333333333,293.4239043120622C510.87301587301585,293.4239043120622,498.4126984126984,291.96557097872886,485.95238095238096,289.0489043120622C473.4920634920635,286.1322376453955,461.031746031746,269.0489043120622,448.57142857142856,269.0489043120622C436.1111111111111,269.0489043120622,423.6507936507937,301.9426772058352,411.1904761904762,302.8950581582161C398.73015873015873,303.847439110597,386.26984126984127,303.3712486344066,373.8095238095238,304.3236295867875C361.3492063492063,305.2760105391684,348.88888888888886,328.9390142021721,336.4285714285714,328.9390142021721C323.9682539682539,328.9390142021721,311.5079365079365,316.08187134502924,299.04761904761904,316.08187134502924C286.58730158730157,316.08187134502924,274.1269841269841,346.87134502923976,261.66666666666663,351.87134502923976C249.2063492063492,356.87134502923976,236.74603174603172,355.92836257309943,224.28571428571428,359.37134502923976C211.8253968253968,362.8143274853801,199.36507936507937,367.09551656920075,186.9047619047619,372.52923976608184C174.44444444444443,377.96296296296293,161.984126984127,391.9736842105263,149.52380952380952,391.9736842105263C137.06349206349205,391.9736842105263,124.6031746031746,339.4736842105263,112.14285714285714,339.4736842105263C99.68253968253968,339.4736842105263,87.22222222222221,362.8070175438596,74.76190476190476,372.8070175438596C62.3015873015873,382.8070175438596,49.84126984126984,391.60818713450294,37.38095238095238,399.47368421052636C24.920634920634917,407.3391812865498,12.46031746031746,413.6695906432749,0,420Z"><title>AUT</title></path><path fill="#ff7f0e" d="M0,420C12.46031746031746,413.6695906432749,24.920634920634917,407.3391812865498,37.38095238095238,399.47368421052636C49.84126984126984,391.60818713450294,62.3015873015873,379.4736842105263,74.76190476190476,372.8070175438596C87.22222222222221,366.14035087719293,99.68253968253968,359.4736842105263,112.14285714285714,359.4736842105263C124.6031746031746,359.4736842105263,137.06349206349205,391.9736842105263,149.52380952380952,391.9736842105263C161.984126984127,391.9736842105263,174.44444444444443,377.96296296296293,186.9047619047619,372.52923976608184C199.36507936507937,367.09551656920075,211.8253968253968,362.8143274853801,224.28571428571428,359.37134502923976C236.74603174603172,355.92836257309943,249.2063492063492,355.7529239766082,261.66666666666663,351.87134502923976C274.1269841269841,347.9897660818713,286.58730158730157,339.9039264828739,299.04761904761904,336.08187134502924C311.5079365079365,332.25981620718466,323.9682539682539,328.9390142021721,336.4285714285714,328.9390142021721C348.88888888888886,328.9390142021721,361.3492063492063,344.3236295867875,373.8095238095238,344.3236295867875C386.26984126984127,344.3236295867875,398.73015873015873,343.847439110597,411.1904761904762,342.89505815821605C423.6507936507937,341.9426772058351,436.1111111111111,329.0489043120622,448.57142857142856,329.0489043120622C461.031746031746,329.0489043120622,473.4920634920635,329.0489043120622,485.95238095238096,329.0489043120622C498.4126984126984,329.0489043120622,510.87301587301585,350.46094134909924,523.3333333333333,353.4239043120622C535.7936507936507,356.38686727502517,548.2539682539683,357.86834875650663,560.7142857142858,357.86834875650663C573.1746031746032,357.86834875650663,585.6349206349206,339.296920185078,598.0952380952381,339.296920185078C610.5555555555555,339.296920185078,623.015873015873,345.7675084203722,635.4761904761905,345.7675084203722C647.936507936508,345.7675084203722,660.3968253968253,343.1359294730037,672.8571428571428,339.76750842037217C685.3174603174602,336.3990873677406,697.7777777777778,325.55698210458274,710.2380952380953,325.55698210458274C735.1587301587302,325.55698210458274,760.0793650793651,334.8903154379161,785,344.22364877124943L785,404.2236487712494C760.0793650793651,414.890315437916,735.1587301587302,425.5569821045827,710.2380952380953,425.5569821045827C697.7777777777778,425.5569821045827,685.3174603174602,423.0657540344073,672.8571428571428,419.76750842037217C660.3968253968253,416.4692628063371,647.936507936508,412.51260645958786,635.4761904761905,405.76750842037217C623.015873015873,399.0224103811565,610.5555555555555,379.2969201850781,598.0952380952381,379.2969201850781C585.6349206349206,379.2969201850781,573.1746031746032,392.180518068676,560.7142857142858,397.8683487565067C548.2539682539683,403.55617944433743,535.7936507936507,413.42390431206223,523.3333333333333,413.42390431206223C510.87301587301585,413.42390431206223,498.4126984126984,389.0489043120622,485.95238095238096,389.0489043120622C473.4920634920635,389.0489043120622,461.031746031746,389.0489043120622,448.57142857142856,389.0489043120622C436.1111111111111,389.0489043120622,423.6507936507937,386.99762226078013,411.1904761904762,382.89505815821605C398.73015873015873,378.79249405565196,386.26984126984127,364.3236295867875,373.8095238095238,364.3236295867875C361.3492063492063,364.3236295867875,348.88888888888886,366.97930724246515,336.4285714285714,368.93901420217213C323.9682539682539,370.89872116187905,311.5079365079365,376.0818713450292,299.04761904761904,376.0818713450292C286.58730158730157,376.0818713450292,274.1269841269841,371.87134502923976,261.66666666666663,371.87134502923976C249.2063492063492,371.87134502923976,236.74603174603172,379.3713450292397,224.28571428571428,379.3713450292397C211.8253968253968,379.3713450292397,199.36507936507937,372.52923976608184,186.9047619047619,372.52923976608184C174.44444444444443,372.52923976608184,161.984126984127,391.9736842105263,149.52380952380952,391.9736842105263C137.06349206349205,391.9736842105263,124.6031746031746,382.66812865497076,112.14285714285714,379.4736842105263C99.68253968253968,376.27923976608184,87.22222222222221,372.8070175438596,74.76190476190476,372.8070175438596C62.3015873015873,372.8070175438596,49.84126984126984,404.94152046783626,37.38095238095238,419.4736842105263C24.920634920634917,434.00584795321635,12.46031746031746,447.0029239766082,0,460Z"><title>CAN</title></path><path fill="#2ca02c" d="M0,59.99999999999997C12.46031746031746,49.736842105263136,24.920634920634917,39.47368421052631,37.38095238095238,39.47368421052631C49.84126984126984,39.47368421052631,62.3015873015873,128.36257309941524,74.76190476190476,132.80701754385967C87.22222222222221,137.2514619883041,99.68253968253968,139.47368421052633,112.14285714285714,139.47368421052633C124.6031746031746,139.47368421052633,137.06349206349205,106.46442495126706,149.52380952380952,91.97368421052632C161.984126984127,77.48294346978557,174.44444444444443,52.52923976608188,186.9047619047619,52.52923976608188C199.36507936507937,52.52923976608188,211.8253968253968,54.80994152046784,224.28571428571428,59.37134502923975C236.74603174603172,63.93274853801166,249.2063492063492,89.0643274853801,261.66666666666663,91.87134502923976C274.1269841269841,94.67836257309942,286.58730158730157,93.2748538011696,299.04761904761904,96.08187134502926C311.5079365079365,98.88888888888891,323.9682539682539,134.2320544952124,336.4285714285714,148.9390142021721C348.88888888888886,163.64597390913184,361.3492063492063,184.32362958678755,373.8095238095238,184.32362958678755C386.26984126984127,184.32362958678755,398.73015873015873,162.89505815821607,411.1904761904762,162.89505815821607C423.6507936507937,162.89505815821607,436.1111111111111,189.0489043120622,448.57142857142856,189.0489043120622C461.031746031746,189.0489043120622,473.4920634920635,178.31973764539558,485.95238095238096,169.0489043120622C498.4126984126984,159.77807097872886,510.87301587301585,133.42390431206218,523.3333333333333,133.42390431206218C535.7936507936507,133.42390431206218,548.2539682539683,134.9053857935437,560.7142857142858,137.86834875650672C573.1746031746032,140.83131171946974,585.6349206349206,179.29692018507805,598.0952380952381,179.29692018507805C610.5555555555555,179.29692018507805,623.015873015873,145.76750842037222,635.4761904761905,145.76750842037222C647.936507936508,145.76750842037222,660.3968253968253,199.76750842037222,672.8571428571428,199.76750842037222C685.3174603174602,199.76750842037222,697.7777777777778,165.55698210458277,710.2380952380953,165.55698210458277C735.1587301587302,165.55698210458277,760.0793650793651,184.89031543791606,785,204.22364877124934L785,224.22364877124934C760.0793650793651,214.89031543791606,735.1587301587302,205.55698210458274,710.2380952380953,205.55698210458274C697.7777777777778,205.55698210458274,685.3174603174602,216.39908736774063,672.8571428571428,219.76750842037222C660.3968253968253,223.13592947300378,647.936507936508,221.76750842037222,635.4761904761905,225.7675084203722C623.015873015873,229.7675084203722,610.5555555555555,259.2969201850781,598.0952380952381,259.2969201850781C585.6349206349206,259.2969201850781,573.1746031746032,217.8683487565067,560.7142857142858,217.8683487565067C548.2539682539683,217.8683487565067,535.7936507936507,228.2271450528029,523.3333333333333,233.42390431206218C510.87301587301585,238.62066357132142,498.4126984126984,249.04890431206218,485.95238095238096,249.04890431206218C473.4920634920635,249.04890431206218,461.031746031746,249.04890431206218,448.57142857142856,249.04890431206218C436.1111111111111,249.04890431206218,423.6507936507937,222.89505815821605,411.1904761904762,222.89505815821605C398.73015873015873,222.89505815821605,386.26984126984127,223.37124863440653,373.8095238095238,224.32362958678752C361.3492063492063,225.2760105391685,348.88888888888886,228.93901420217213,336.4285714285714,228.93901420217213C323.9682539682539,228.93901420217213,311.5079365079365,216.08187134502927,299.04761904761904,216.08187134502927C286.58730158730157,216.08187134502927,274.1269841269841,227.98976608187135,261.66666666666663,231.87134502923976C249.2063492063492,235.75292397660817,236.74603174603172,239.37134502923973,224.28571428571428,239.37134502923973C211.8253968253968,239.37134502923973,199.36507936507937,237.0906432748538,186.9047619047619,232.52923976608187C174.44444444444443,227.96783625730995,161.984126984127,211.97368421052633,149.52380952380952,211.97368421052633C137.06349206349205,211.97368421052633,124.6031746031746,219.4736842105263,112.14285714285714,219.4736842105263C99.68253968253968,219.4736842105263,87.22222222222221,216.140350877193,74.76190476190476,212.80701754385964C62.3015873015873,209.4736842105263,49.84126984126984,204.94152046783626,37.38095238095238,199.4736842105263C24.920634920634917,194.00584795321635,12.46031746031746,187.00292397660817,0,179.99999999999997Z"><title>CZE</title></path><path fill="#9467bd" d="M0,460C12.46031746031746,447.0029239766082,24.920634920634917,434.00584795321635,37.38095238095238,419.4736842105263C49.84126984126984,404.94152046783626,62.3015873015873,372.8070175438596,74.76190476190476,372.8070175438596C87.22222222222221,372.8070175438596,99.68253968253968,376.27923976608184,112.14285714285714,379.4736842105263C124.6031746031746,382.66812865497076,137.06349206349205,391.9736842105263,149.52380952380952,391.9736842105263C161.984126984127,391.9736842105263,174.44444444444443,372.52923976608184,186.9047619047619,372.52923976608184C199.36507936507937,372.52923976608184,211.8253968253968,379.3713450292397,224.28571428571428,379.3713450292397C236.74603174603172,379.3713450292397,249.2063492063492,371.87134502923976,261.66666666666663,371.87134502923976C274.1269841269841,371.87134502923976,286.58730158730157,376.0818713450292,299.04761904761904,376.0818713450292C311.5079365079365,376.0818713450292,323.9682539682539,370.89872116187905,336.4285714285714,368.93901420217213C348.88888888888886,366.97930724246515,361.3492063492063,364.3236295867875,373.8095238095238,364.3236295867875C386.26984126984127,364.3236295867875,398.73015873015873,378.79249405565196,411.1904761904762,382.89505815821605C423.6507936507937,386.99762226078013,436.1111111111111,389.0489043120622,448.57142857142856,389.0489043120622C461.031746031746,389.0489043120622,473.4920634920635,389.0489043120622,485.95238095238096,389.0489043120622C498.4126984126984,389.0489043120622,510.87301587301585,413.42390431206223,523.3333333333333,413.42390431206223C535.7936507936507,413.42390431206223,548.2539682539683,403.55617944433743,560.7142857142858,397.8683487565067C573.1746031746032,392.180518068676,585.6349206349206,379.2969201850781,598.0952380952381,379.2969201850781C610.5555555555555,379.2969201850781,623.015873015873,399.0224103811565,635.4761904761905,405.76750842037217C647.936507936508,412.51260645958786,660.3968253968253,416.4692628063371,672.8571428571428,419.76750842037217C685.3174603174602,423.0657540344073,697.7777777777778,425.5569821045827,710.2380952380953,425.5569821045827C735.1587301587302,425.5569821045827,760.0793650793651,414.890315437916,785,404.2236487712494L785,504.22364877124943C760.0793650793651,524.8903154379161,735.1587301587302,545.5569821045827,710.2380952380953,545.5569821045827C697.7777777777778,545.5569821045827,685.3174603174602,509.1008417537056,672.8571428571428,499.7675084203722C660.3968253968253,490.4341750870389,647.936507936508,492.5126064595879,635.4761904761905,485.7675084203722C623.015873015873,479.02241038115653,610.5555555555555,459.29692018507814,598.0952380952381,459.29692018507814C585.6349206349206,459.29692018507814,573.1746031746032,497.8683487565067,560.7142857142858,497.8683487565067C548.2539682539683,497.8683487565067,535.7936507936507,456.3405709787289,523.3333333333333,453.42390431206223C510.87301587301585,450.50723764539555,498.4126984126984,449.04890431206223,485.95238095238096,449.04890431206223C473.4920634920635,449.04890431206223,461.031746031746,449.04890431206223,448.57142857142856,449.04890431206223C436.1111111111111,449.04890431206223,423.6507936507937,442.8950581582161,411.1904761904762,442.8950581582161C398.73015873015873,442.8950581582161,386.26984126984127,444.3236295867875,373.8095238095238,444.3236295867875C361.3492063492063,444.3236295867875,348.88888888888886,428.9390142021721,336.4285714285714,428.9390142021721C323.9682539682539,428.9390142021721,311.5079365079365,476.08187134502924,299.04761904761904,476.08187134502924C286.58730158730157,476.08187134502924,274.1269841269841,411.8713450292398,261.66666666666663,411.8713450292398C249.2063492063492,411.8713450292398,236.74603174603172,439.37134502923976,224.28571428571428,439.37134502923976C211.8253968253968,439.37134502923976,199.36507936507937,412.8996101364523,186.9047619047619,412.5292397660819C174.44444444444443,412.1588693957115,161.984126984127,412.34405458089674,149.52380952380952,411.97368421052636C137.06349206349205,411.603313840156,124.6031746031746,383.91812865497076,112.14285714285714,379.4736842105263C99.68253968253968,375.02923976608184,87.22222222222221,372.8070175438596,74.76190476190476,372.8070175438596C62.3015873015873,372.8070175438596,49.84126984126984,401.6081871345029,37.38095238095238,419.4736842105263C24.920634920634917,437.3391812865497,12.46031746031746,458.6695906432749,0,480.00000000000006Z"><title>SRB</title></path><path fill="#8c564b" d="M0,179.99999999999997C12.46031746031746,187.00292397660817,24.920634920634917,194.00584795321635,37.38095238095238,199.4736842105263C49.84126984126984,204.94152046783626,62.3015873015873,209.4736842105263,74.76190476190476,212.80701754385964C87.22222222222221,216.140350877193,99.68253968253968,219.4736842105263,112.14285714285714,219.4736842105263C124.6031746031746,219.4736842105263,137.06349206349205,211.97368421052633,149.52380952380952,211.97368421052633C161.984126984127,211.97368421052633,174.44444444444443,227.96783625730995,186.9047619047619,232.52923976608187C199.36507936507937,237.0906432748538,211.8253968253968,239.37134502923973,224.28571428571428,239.37134502923973C236.74603174603172,239.37134502923973,249.2063492063492,235.75292397660817,261.66666666666663,231.87134502923976C274.1269841269841,227.98976608187135,286.58730158730157,216.08187134502927,299.04761904761904,216.08187134502927C311.5079365079365,216.08187134502927,323.9682539682539,228.93901420217213,336.4285714285714,228.93901420217213C348.88888888888886,228.93901420217213,361.3492063492063,225.2760105391685,373.8095238095238,224.32362958678752C386.26984126984127,223.37124863440653,398.73015873015873,222.89505815821605,411.1904761904762,222.89505815821605C423.6507936507937,222.89505815821605,436.1111111111111,249.04890431206218,448.57142857142856,249.04890431206218C461.031746031746,249.04890431206218,473.4920634920635,249.04890431206218,485.95238095238096,249.04890431206218C498.4126984126984,249.04890431206218,510.87301587301585,238.62066357132142,523.3333333333333,233.42390431206218C535.7936507936507,228.2271450528029,548.2539682539683,217.8683487565067,560.7142857142858,217.8683487565067C573.1746031746032,217.8683487565067,585.6349206349206,259.2969201850781,598.0952380952381,259.2969201850781C610.5555555555555,259.2969201850781,623.015873015873,229.7675084203722,635.4761904761905,225.7675084203722C647.936507936508,221.76750842037222,660.3968253968253,223.13592947300378,672.8571428571428,219.76750842037222C685.3174603174602,216.39908736774063,697.7777777777778,205.55698210458274,710.2380952380953,205.55698210458274C735.1587301587302,205.55698210458274,760.0793650793651,214.89031543791606,785,224.22364877124934L785,244.2236487712494C760.0793650793651,224.8903154379161,735.1587301587302,205.55698210458274,710.2380952380953,205.55698210458274C697.7777777777778,205.55698210458274,685.3174603174602,216.39908736774063,672.8571428571428,219.76750842037222C660.3968253968253,223.13592947300378,647.936507936508,221.76750842037222,635.4761904761905,225.7675084203722C623.015873015873,229.7675084203722,610.5555555555555,259.2969201850781,598.0952380952381,259.2969201850781C585.6349206349206,259.2969201850781,573.1746031746032,240.83131171946962,560.7142857142858,237.86834875650666C548.2539682539683,234.90538579354367,535.7936507936507,233.42390431206218,523.3333333333333,233.42390431206218C510.87301587301585,233.42390431206218,498.4126984126984,249.04890431206218,485.95238095238096,249.04890431206218C473.4920634920635,249.04890431206218,461.031746031746,249.04890431206218,448.57142857142856,249.04890431206218C436.1111111111111,249.04890431206218,423.6507936507937,242.89505815821605,411.1904761904762,242.89505815821605C398.73015873015873,242.89505815821605,386.26984126984127,243.37124863440653,373.8095238095238,244.32362958678746C361.3492063492063,245.2760105391684,348.88888888888886,245.862091125249,336.4285714285714,248.93901420217213C323.9682539682539,252.01593727909523,311.5079365079365,268.92648287385134,299.04761904761904,276.08187134502924C286.58730158730157,283.2372598162072,274.1269841269841,287.98976608187127,261.66666666666663,291.8713450292397C249.2063492063492,295.75292397660814,236.74603174603172,294.3713450292397,224.28571428571428,299.37134502923976C211.8253968253968,304.3713450292398,199.36507936507937,332.5292397660819,186.9047619047619,332.5292397660819C174.44444444444443,332.5292397660819,161.984126984127,317.48294346978565,149.52380952380952,311.97368421052636C137.06349206349205,306.46442495126706,124.6031746031746,302.66812865497076,112.14285714285714,299.4736842105263C99.68253968253968,296.27923976608184,87.22222222222221,292.8070175438597,74.76190476190476,292.8070175438597C62.3015873015873,292.8070175438597,49.84126984126984,339.1228070175438,37.38095238095238,339.4736842105263C24.920634920634917,339.8245614035088,12.46031746031746,339.9122807017544,0,340.00000000000006Z"><title>SWE</title></path><path fill="#d62728" d="M0,420C12.46031746031746,413.6695906432749,24.920634920634917,407.3391812865498,37.38095238095238,399.47368421052636C49.84126984126984,391.60818713450294,62.3015873015873,382.8070175438596,74.76190476190476,372.8070175438596C87.22222222222221,362.8070175438596,99.68253968253968,339.4736842105263,112.14285714285714,339.4736842105263C124.6031746031746,339.4736842105263,137.06349206349205,391.9736842105263,149.52380952380952,391.9736842105263C161.984126984127,391.9736842105263,174.44444444444443,377.96296296296293,186.9047619047619,372.52923976608184C199.36507936507937,367.09551656920075,211.8253968253968,362.8143274853801,224.28571428571428,359.37134502923976C236.74603174603172,355.92836257309943,249.2063492063492,356.87134502923976,261.66666666666663,351.87134502923976C274.1269841269841,346.87134502923976,286.58730158730157,316.08187134502924,299.04761904761904,316.08187134502924C311.5079365079365,316.08187134502924,323.9682539682539,328.9390142021721,336.4285714285714,328.9390142021721C348.88888888888886,328.9390142021721,361.3492063492063,305.2760105391684,373.8095238095238,304.3236295867875C386.26984126984127,303.3712486344066,398.73015873015873,303.847439110597,411.1904761904762,302.8950581582161C423.6507936507937,301.9426772058352,436.1111111111111,269.0489043120622,448.57142857142856,269.0489043120622C461.031746031746,269.0489043120622,473.4920634920635,286.1322376453955,485.95238095238096,289.0489043120622C498.4126984126984,291.96557097872886,510.87301587301585,293.4239043120622,523.3333333333333,293.4239043120622C535.7936507936507,293.4239043120622,548.2539682539683,277.86834875650663,560.7142857142858,277.86834875650663C573.1746031746032,277.86834875650663,585.6349206349206,278.3445392326971,598.0952380952381,279.2969201850781C610.5555555555555,280.24930113745904,623.015873015873,285.7675084203722,635.4761904761905,285.7675084203722C647.936507936508,285.7675084203722,660.3968253968253,266.46926280633716,672.8571428571428,259.7675084203722C685.3174603174602,253.06575403440726,697.7777777777778,245.55698210458272,710.2380952380953,245.55698210458272C735.1587301587302,245.55698210458272,760.0793650793651,254.89031543791606,785,264.2236487712494L785,344.22364877124943C760.0793650793651,334.8903154379161,735.1587301587302,325.55698210458274,710.2380952380953,325.55698210458274C697.7777777777778,325.55698210458274,685.3174603174602,336.3990873677406,672.8571428571428,339.76750842037217C660.3968253968253,343.1359294730037,647.936507936508,345.7675084203722,635.4761904761905,345.7675084203722C623.015873015873,345.7675084203722,610.5555555555555,339.296920185078,598.0952380952381,339.296920185078C585.6349206349206,339.296920185078,573.1746031746032,357.86834875650663,560.7142857142858,357.86834875650663C548.2539682539683,357.86834875650663,535.7936507936507,356.38686727502517,523.3333333333333,353.4239043120622C510.87301587301585,350.46094134909924,498.4126984126984,329.0489043120622,485.95238095238096,329.0489043120622C473.4920634920635,329.0489043120622,461.031746031746,329.0489043120622,448.57142857142856,329.0489043120622C436.1111111111111,329.0489043120622,423.6507936507937,341.9426772058351,411.1904761904762,342.89505815821605C398.73015873015873,343.847439110597,386.26984126984127,344.3236295867875,373.8095238095238,344.3236295867875C361.3492063492063,344.3236295867875,348.88888888888886,328.9390142021721,336.4285714285714,328.9390142021721C323.9682539682539,328.9390142021721,311.5079365079365,332.25981620718466,299.04761904761904,336.08187134502924C286.58730158730157,339.9039264828739,274.1269841269841,347.9897660818713,261.66666666666663,351.87134502923976C249.2063492063492,355.7529239766082,236.74603174603172,355.92836257309943,224.28571428571428,359.37134502923976C211.8253968253968,362.8143274853801,199.36507936507937,367.09551656920075,186.9047619047619,372.52923976608184C174.44444444444443,377.96296296296293,161.984126984127,391.9736842105263,149.52380952380952,391.9736842105263C137.06349206349205,391.9736842105263,124.6031746031746,359.4736842105263,112.14285714285714,359.4736842105263C99.68253968253968,359.4736842105263,87.22222222222221,366.14035087719293,74.76190476190476,372.8070175438596C62.3015873015873,379.4736842105263,49.84126984126984,391.60818713450294,37.38095238095238,399.47368421052636C24.920634920634917,407.3391812865498,12.46031746031746,413.6695906432749,0,420Z"><title>JPN</title></path></g><g id="xAxis" transform="translate(0,560)" fill="none" font-size="10" font-family="sans-serif" text-anchor="middle"><path class="domain" stroke="currentColor" d="M0.5,0.5H785.5"/><g class="tick" opacity="1" transform="translate(0.5,0)"><line stroke="currentColor" y2="6"/><text fill="currentColor" y="9" dy="0.71em">2,000</text></g><g class="tick" opacity="1" transform="translate(75.26190476190476,0)"><line stroke="currentColor" y2="6"/><text fill="currentColor" y="9" dy="0.71em">2,002</text></g><g class="tick" opacity="1" transform="translate(150.02380952380952,0)"><line stroke="currentColor" y2="6"/><text fill="currentColor" y="9" dy="0.71em">2,004</text></g><g class="tick" opacity="1" transform="translate(224.78571428571428,0)"><line stroke="currentColor" y2="6"/><text fill="currentColor" y="9" dy="0.71em">2,006</text></g><g class="tick" opacity="1" transform="translate(299.54761904761904,0)"><line stroke="currentColor" y2="6"/><text fill="currentColor" y="9" dy="0.71em">2,008</text></g><g class="tick" opacity="1" transform="translate(374.3095238095238,0)"><line stroke="currentColor" y2="6"/><text fill="currentColor" y="9" dy="0.71em">2,010</text></g><g class="tick" opacity="1" transform="translate(449.07142857142856,0)"><line stroke="currentColor" y2="6"/><text fill="currentColor" y="9" dy="0.71em">2,012</text></g><g class="tick" opacity="1" transform="translate(523.8333333333333,0)"><line stroke="currentColor" y2="6"/><text fill="currentColor" y="9" dy="0.71em">2,014</text></g><g class="tick" opacity="1" transform="translate(598.5952380952381,0)"><line stroke="currentColor" y2="6"/><text fill="currentColor" y="9" dy="0.71em">2,016</text></g><g class="tick" opacity="1" transform="translate(673.3571428571428,0)"><line stroke="currentColor" y2="6"/><text fill="currentColor" y="9" dy="0.71em">2,018</text></g><g class="tick" opacity="1" transform="translate(748.1190476190476,0)"><line stroke="currentColor" y2="6"/><text fill="currentColor" y="9" dy="0.71em">2,020</text></g></g><text style="font-family: Arial, sans-serif; font-size: 12px; fill: rgb(123, 123, 123); font-weight: bold;" y="556" x="785" text-anchor="end">year</text><text style="font-family: Arial, sans-serif; font-size: 12px; fill: rgb(123, 123, 123); font-weight: bold;" x="4" text-anchor="start" dominant-baseline="hanging">n</text><g id="labels"><text x="149.52380952380952" y="351.9736842105263" text-anchor="middle" alignment-baseline="middle" style="font-family: Arial, sans-serif; font-size: 10px; fill: black; font-weight: bold;">AUT</text><text x="710.2380952380953" y="375.55698210458274" text-anchor="middle" alignment-baseline="middle" style="font-family: Arial, sans-serif; font-size: 10px; fill: black; font-weight: bold;">CAN</text><text x="186.9047619047619" y="142.52923976608187" text-anchor="middle" alignment-baseline="middle" style="font-family: Arial, sans-serif; font-size: 10px; fill: black; font-weight: bold;">CZE</text><text x="710.2380952380953" y="485.55698210458274" text-anchor="middle" alignment-baseline="middle" style="font-family: Arial, sans-serif; font-size: 10px; fill: black; font-weight: bold;">SRB</text><text x="0" y="260" text-anchor="start" alignment-baseline="middle" style="font-family: Arial, sans-serif; font-size: 10px; fill: black; font-weight: bold;">SWE</text><text x="560.7142857142858" y="317.86834875650663" text-anchor="middle" alignment-baseline="middle" style="font-family: Arial, sans-serif; font-size: 10px; fill: black; font-weight: bold;">JPN</text></g></g><text x="4" y="4" style="font-family: Arial, sans-serif; font-size: 12px; fill: black; font-weight: bold; dominant-baseline: hanging;"/></g></g></svg>